<svg xmlns="http://www.w3.org/2000/svg">
    <!-- brand -->
    <symbol fill="currentColor" viewBox="0 0 16 16" id="brand">
        <path
            fill-rule="evenodd"
            d="M 1.214844 4.84375 L 1.214844 9.6875 L 2.429688 10.898438 L 3.640625 12.113281 L 10.910156 12.113281 L 10.910156 7.289062 L 9.699219 6.074219 L 8.488281 4.863281 L 8.492188 7.28125 L 8.496094 9.695312 L 3.632812 9.695312 L 3.632812 2.414062 L 10.886719 2.414062 L 8.472656 0 L 1.214844 0 L 1.214844 4.84375 M 12.367188 8.738281 L 12.367188 13.585938 L 5.113281 13.585938 L 7.527344 16 L 14.785156 16 L 14.785156 6.3125 L 13.574219 5.105469 L 12.367188 3.894531 L 12.367188 8.738281"
        ></path>
    </symbol>
    <!-- menu -->
    <symbol fill="currentColor" viewBox="0 0 16 16" id="menu">
        <path 
            fill-rule="evenodd" 
            d="M 0 11.808594 L 16 11.808594 L 16 10.285156 L 0 10.285156 Z M 0 5.714844 L 16 5.714844 L 16 4.191406 L 0 4.191406 Z M 0 8.761719 L 16 8.761719 L 16 7.238281 L 0 7.238281 Z M 0 8.761719"
        ></path>
    </symbol>
    <!-- theme -->
    <symbol fill="currentColor" viewBox="0 0 16 16" id="theme">
        <path
            fill-rule="evenodd"
            d="M 7.519531 0.015625 C 4.996094 0.167969 2.695312 1.503906 1.304688 3.628906 C -1.101562 7.304688 -0.078125 12.25 3.601562 14.675781 C 6.773438 16.769531 10.957031 16.34375 13.648438 13.648438 C 15.039062 12.257812 15.894531 10.375 15.980469 8.507812 C 15.984375 8.386719 15.996094 8.28125 16.003906 8.277344 C 16.011719 8.273438 16.015625 8.140625 16.015625 7.980469 C 16.015625 7.824219 16.011719 7.699219 16.003906 7.703125 C 15.996094 7.707031 15.984375 7.613281 15.980469 7.492188 C 15.875 5.25 14.660156 3.003906 12.789062 1.597656 C 11.292969 0.46875 9.402344 -0.0976562 7.519531 0.015625 M 8 8 L 8 14.003906 L 8.253906 13.996094 C 11.222656 13.871094 13.621094 11.625 13.972656 8.632812 C 14.019531 8.21875 13.996094 7.457031 13.917969 7 C 13.453125 4.214844 11.078125 2.121094 8.253906 2.003906 L 8 1.996094 L 8 8 M 0.0078125 8 C 0.0078125 8.164062 0.0078125 8.230469 0.0117188 8.148438 C 0.015625 8.066406 0.015625 7.933594 0.0117188 7.851562 C 0.0078125 7.769531 0.0078125 7.835938 0.0078125 8"
        ></path>
    </symbol>
    <!-- arrow -->
    <symbol fill="currentColor" viewBox="0 0 16 16" id="arrow">
        <path
            fill-rule="evenodd"
            d="M15 2a1 1 0 0 0-1-1H2a1 1 0 0 0-1 1v12a1 1 0 0 0 1 1h12a1 1 0 0 0 1-1V2zM0 2a2 2 0 0 1 2-2h12a2 2 0 0 1 2 2v12a2 2 0 0 1-2 2H2a2 2 0 0 1-2-2V2zm5.854 8.803a.5.5 0 1 1-.708-.707L9.243 6H6.475a.5.5 0 1 1 0-1h3.975a.5.5 0 0 1 .5.5v3.975a.5.5 0 1 1-1 0V6.707l-4.096 4.096z"
        ></path>
    </symbol>
    <!-- github -->
    <symbol fill="currentColor" viewBox="0 0 16 16" id="github">
        <path
            fill-rule="evenodd"
            d="M8 0C3.58 0 0 3.58 0 8c0 3.54 2.29 6.53 5.47 7.59.4.07.55-.17.55-.38 0-.19-.01-.82-.01-1.49-2.01.37-2.53-.49-2.69-.94-.09-.23-.48-.94-.82-1.13-.28-.15-.68-.52-.01-.53.63-.01 1.08.58 1.23.82.72 1.21 1.87.87 2.33.66.07-.52.28-.87.51-1.07-1.78-.2-3.64-.89-3.64-3.95 0-.87.31-1.59.82-2.15-.08-.2-.36-1.02.08-2.12 0 0 .67-.21 2.2.82.64-.18 1.32-.27 2-.27.68 0 1.36.09 2 .27 1.53-1.04 2.2-.82 2.2-.82.44 1.1.16 1.92.08 2.12.51.56.82 1.27.82 2.15 0 3.07-1.87 3.75-3.65 3.95.29.25.54.73.54 1.48 0 1.07-.01 1.93-.01 2.2 0 .21.15.46.55.38A8.012 8.012 0 0 0 16 8c0-4.42-3.58-8-8-8z"
        ></path>
    </symbol>
    <!-- linkedin -->
    <symbol fill="currentColor" viewBox="0 0 16 16" id="linkedin">
        <path
            fill-rule="evenodd"
            d="M0 1.146C0 .513.526 0 1.175 0h13.65C15.474 0 16 .513 16 1.146v13.708c0 .633-.526 1.146-1.175 1.146H1.175C.526 16 0 15.487 0 14.854V1.146zm4.943 12.248V6.169H2.542v7.225h2.401zm-1.2-8.212c.837 0 1.358-.554 1.358-1.248-.015-.709-.52-1.248-1.342-1.248-.822 0-1.359.54-1.359 1.248 0 .694.521 1.248 1.327 1.248h.016zm4.908 8.212V9.359c0-.216.016-.432.08-.586.173-.431.568-.878 1.232-.878.869 0 1.216.662 1.216 1.634v3.865h2.401V9.25c0-2.22-1.184-3.252-2.764-3.252-1.274 0-1.845.7-2.165 1.193v.025h-.016a5.54 5.54 0 0 1 .016-.025V6.169h-2.4c.03.678 0 7.225 0 7.225h2.4z"
        ></path>
    </symbol>
</svg>
