<svg xmlns="http://www.w3.org/2000/svg" fill="currentColor" width="16" height="16" viewBox="0 0 16 16">
    <path
        fill-rule="evenodd"
        d="M 7.519531 0.015625 C 4.996094 0.167969 2.695312 1.503906 1.304688 3.628906 C -1.101562 7.304688 -0.078125 12.25 3.601562 14.675781 C 6.773438 16.769531 10.957031 16.34375 13.648438 13.648438 C 15.039062 12.257812 15.894531 10.375 15.980469 8.507812 C 15.984375 8.386719 15.996094 8.28125 16.003906 8.277344 C 16.011719 8.273438 16.015625 8.140625 16.015625 7.980469 C 16.015625 7.824219 16.011719 7.699219 16.003906 7.703125 C 15.996094 7.707031 15.984375 7.613281 15.980469 7.492188 C 15.875 5.25 14.660156 3.003906 12.789062 1.597656 C 11.292969 0.46875 9.402344 -0.0976562 7.519531 0.015625 M 8 8 L 8 14.003906 L 8.253906 13.996094 C 11.222656 13.871094 13.621094 11.625 13.972656 8.632812 C 14.019531 8.21875 13.996094 7.457031 13.917969 7 C 13.453125 4.214844 11.078125 2.121094 8.253906 2.003906 L 8 1.996094 L 8 8 M 0.0078125 8 C 0.0078125 8.164062 0.0078125 8.230469 0.0117188 8.148438 C 0.015625 8.066406 0.015625 7.933594 0.0117188 7.851562 C 0.0078125 7.769531 0.0078125 7.835938 0.0078125 8"
    ></path>
</svg>
